<svg width="132" height="52" viewBox="0 0 132 52" fill="none" xmlns="http://www.w3.org/2000/svg">
<path fill-rule="evenodd" clip-rule="evenodd" d="M26 50C39.2548 50 50 39.2548 50 26C50 12.7452 39.2548 2 26 2C12.7452 2 2 12.7452 2 26C2 39.2548 12.7452 50 26 50ZM26 52C40.3594 52 52 40.3594 52 26C52 11.6406 40.3594 0 26 0C11.6406 0 0 11.6406 0 26C0 40.3594 11.6406 52 26 52Z" fill="white"/>
<path fill-rule="evenodd" clip-rule="evenodd" d="M14.0712 17.7402L23.6327 23.3178V25.7267L14.0712 31.3042L12.666 28.8953L20.1628 24.5222L12.666 20.1491L14.0712 17.7402Z" fill="white"/>
<path d="M26.7148 13.168L27.3025 13.0395C31.0384 12.2223 34.9431 12.7585 38.3204 14.5527L39.4635 15.16V36.6734L38.3204 37.2808C34.9431 39.0749 31.0384 39.6112 27.3025 38.794L26.7148 38.6654V13.168Z" fill="white"/>
<path d="M71.0197 19.8134C70.913 20.36 70.7264 20.8667 70.4597 21.3334C70.2064 21.8 69.8797 22.2067 69.4797 22.5534C69.0797 22.8867 68.613 23.1467 68.0797 23.3334C67.5464 23.52 66.953 23.6134 66.2997 23.6134C65.6064 23.6134 64.9464 23.5 64.3197 23.2734C63.7064 23.0467 63.1664 22.72 62.6997 22.2934C62.233 21.8534 61.8597 21.32 61.5797 20.6934C61.313 20.0667 61.1797 19.3467 61.1797 18.5334V18.2934C61.1797 17.4934 61.313 16.7734 61.5797 16.1334C61.8597 15.4934 62.233 14.9534 62.6997 14.5134C63.1664 14.0734 63.7064 13.7334 64.3197 13.4934C64.9464 13.2534 65.6064 13.1334 66.2997 13.1334C66.9264 13.1334 67.5064 13.2267 68.0397 13.4134C68.573 13.6 69.0397 13.8667 69.4397 14.2134C69.853 14.5467 70.1864 14.9467 70.4397 15.4134C70.7064 15.88 70.8864 16.3867 70.9797 16.9334L69.4197 17.2934C69.3797 16.9467 69.2797 16.6134 69.1197 16.2934C68.973 15.96 68.7664 15.6734 68.4997 15.4334C68.2464 15.18 67.933 14.98 67.5597 14.8334C67.1864 14.6867 66.753 14.6134 66.2597 14.6134C65.7797 14.6134 65.3264 14.7067 64.8997 14.8934C64.4864 15.0667 64.1197 15.32 63.7997 15.6534C63.4797 15.9734 63.2264 16.36 63.0397 16.8134C62.8664 17.2667 62.7797 17.76 62.7797 18.2934V18.5334C62.7797 19.0934 62.8664 19.6 63.0397 20.0534C63.2264 20.4934 63.4797 20.8667 63.7997 21.1734C64.1197 21.48 64.493 21.72 64.9197 21.8934C65.3464 22.0534 65.8064 22.1334 66.2997 22.1334C66.793 22.1334 67.2197 22.06 67.5797 21.9134C67.953 21.7534 68.2664 21.5534 68.5197 21.3134C68.7864 21.06 68.993 20.7734 69.1397 20.4534C69.2997 20.1334 69.4064 19.8 69.4597 19.4534L71.0197 19.8134Z" fill="white"/>
<path d="M73.4258 13.4134H77.0258V14.7334H77.2658C77.5191 14.1867 77.8791 13.7867 78.3458 13.5334C78.8124 13.2667 79.3458 13.1334 79.9458 13.1334C80.9458 13.1334 81.7524 13.46 82.3658 14.1134C82.9791 14.7667 83.3058 15.72 83.3458 16.9734L81.7058 17.2134C81.7058 16.2934 81.4858 15.6334 81.0458 15.2334C80.6058 14.82 80.0658 14.6134 79.4258 14.6134C79.0124 14.6134 78.6524 14.6934 78.3458 14.8534C78.0524 15.0134 77.8058 15.2334 77.6058 15.5134C77.4058 15.7934 77.2591 16.12 77.1658 16.4934C77.0724 16.8667 77.0258 17.2667 77.0258 17.6934V21.8934H79.5458V23.3334H73.1858V21.8934H75.4658V14.8534H73.4258V13.4134Z" fill="white"/>
<path d="M93.3119 13.4134H94.8719V23.3334H93.3119V21.5334H93.0719C92.7519 22.1734 92.3319 22.68 91.8119 23.0534C91.2919 23.4267 90.6319 23.6134 89.8319 23.6134C89.2852 23.6134 88.7785 23.52 88.3119 23.3334C87.8585 23.16 87.4652 22.8934 87.1319 22.5334C86.8119 22.1734 86.5585 21.7267 86.3719 21.1934C86.1985 20.66 86.1119 20.04 86.1119 19.3334V13.4134H87.6719V19.1334C87.6719 20.1734 87.8852 20.9334 88.3119 21.4134C88.7385 21.8934 89.3919 22.1334 90.2719 22.1334C91.2185 22.1334 91.9585 21.8134 92.4919 21.1734C93.0385 20.52 93.3119 19.6534 93.3119 18.5734V13.4134Z" fill="white"/>
<path d="M100.038 23.3334H98.478V13.4134H100.038V15.0934H100.278C100.891 13.7867 101.958 13.1334 103.478 13.1334C104.625 13.1334 105.538 13.4934 106.218 14.2134C106.898 14.92 107.238 15.9867 107.238 17.4134V23.3334H105.678V17.7334C105.678 16.6934 105.445 15.9134 104.978 15.3934C104.511 14.8734 103.878 14.6134 103.078 14.6134C102.131 14.6134 101.385 14.94 100.838 15.5934C100.305 16.2334 100.038 17.0934 100.038 18.1734V23.3334Z" fill="white"/>
<path d="M120.004 19.8134C119.897 20.36 119.711 20.8667 119.444 21.3334C119.191 21.8 118.864 22.2067 118.464 22.5534C118.064 22.8867 117.597 23.1467 117.064 23.3334C116.531 23.52 115.937 23.6134 115.284 23.6134C114.591 23.6134 113.931 23.5 113.304 23.2734C112.691 23.0467 112.151 22.72 111.684 22.2934C111.217 21.8534 110.844 21.32 110.564 20.6934C110.297 20.0667 110.164 19.3467 110.164 18.5334V18.2934C110.164 17.4934 110.297 16.7734 110.564 16.1334C110.844 15.4934 111.217 14.9534 111.684 14.5134C112.151 14.0734 112.691 13.7334 113.304 13.4934C113.931 13.2534 114.591 13.1334 115.284 13.1334C115.911 13.1334 116.491 13.2267 117.024 13.4134C117.557 13.6 118.024 13.8667 118.424 14.2134C118.837 14.5467 119.171 14.9467 119.424 15.4134C119.691 15.88 119.871 16.3867 119.964 16.9334L118.404 17.2934C118.364 16.9467 118.264 16.6134 118.104 16.2934C117.957 15.96 117.751 15.6734 117.484 15.4334C117.231 15.18 116.917 14.98 116.544 14.8334C116.171 14.6867 115.737 14.6134 115.244 14.6134C114.764 14.6134 114.311 14.7067 113.884 14.8934C113.471 15.0667 113.104 15.32 112.784 15.6534C112.464 15.9734 112.211 16.36 112.024 16.8134C111.851 17.2667 111.764 17.76 111.764 18.2934V18.5334C111.764 19.0934 111.851 19.6 112.024 20.0534C112.211 20.4934 112.464 20.8667 112.784 21.1734C113.104 21.48 113.477 21.72 113.904 21.8934C114.331 22.0534 114.791 22.1334 115.284 22.1334C115.777 22.1334 116.204 22.06 116.564 21.9134C116.937 21.7534 117.251 21.5534 117.504 21.3134C117.771 21.06 117.977 20.7734 118.124 20.4534C118.284 20.1334 118.391 19.8 118.444 19.4534L120.004 19.8134Z" fill="white"/>
<path d="M124.53 23.3334H122.97V9.33337H124.53V15.2134H124.77C125.077 14.5734 125.503 14.0667 126.05 13.6934C126.61 13.32 127.29 13.1334 128.09 13.1334C129.17 13.1334 130.043 13.4934 130.71 14.2134C131.39 14.92 131.73 15.9867 131.73 17.4134V23.3334H130.17V17.7334C130.17 16.6934 129.937 15.9134 129.47 15.3934C129.003 14.8734 128.37 14.6134 127.57 14.6134C126.623 14.6134 125.877 14.94 125.33 15.5934C124.797 16.2334 124.53 17.0934 124.53 18.1734V23.3334Z" fill="white"/>
<path d="M69.4197 37.8134H69.1797C69.0197 38.12 68.813 38.3867 68.5597 38.6134C68.3197 38.84 68.053 39.0267 67.7597 39.1734C67.4797 39.32 67.1797 39.4267 66.8597 39.4934C66.5397 39.5734 66.233 39.6134 65.9397 39.6134C65.273 39.6134 64.653 39.5 64.0797 39.2734C63.5064 39.0467 62.9997 38.72 62.5597 38.2934C62.133 37.8667 61.793 37.34 61.5397 36.7134C61.2997 36.0734 61.1797 35.3467 61.1797 34.5334V34.2134C61.1797 33.4134 61.3064 32.7 61.5597 32.0734C61.813 31.4334 62.153 30.9 62.5797 30.4734C63.0064 30.0334 63.5064 29.7 64.0797 29.4734C64.653 29.2467 65.2597 29.1334 65.8997 29.1334C66.5797 29.1334 67.213 29.2867 67.7997 29.5934C68.3997 29.8867 68.8597 30.3467 69.1797 30.9734H69.4197V25.3334H70.9797V39.3334H69.4197V37.8134ZM66.0997 38.1334C66.5664 38.1334 66.9997 38.0467 67.3997 37.8734C67.7997 37.7 68.1464 37.4534 68.4397 37.1334C68.7464 36.8134 68.9864 36.4334 69.1597 35.9934C69.333 35.54 69.4197 35.04 69.4197 34.4934V34.2534C69.4197 33.72 69.333 33.2334 69.1597 32.7934C68.9864 32.34 68.7464 31.9534 68.4397 31.6334C68.1464 31.3134 67.793 31.0667 67.3797 30.8934C66.9797 30.7067 66.553 30.6134 66.0997 30.6134C65.633 30.6134 65.193 30.7 64.7797 30.8734C64.3797 31.0467 64.0264 31.2934 63.7197 31.6134C63.4264 31.9334 63.193 32.3134 63.0197 32.7534C62.8597 33.1934 62.7797 33.68 62.7797 34.2134V34.5334C62.7797 35.0934 62.8597 35.5934 63.0197 36.0334C63.193 36.4734 63.4264 36.8534 63.7197 37.1734C64.0264 37.48 64.3797 37.72 64.7797 37.8934C65.1797 38.0534 65.6197 38.1334 66.0997 38.1334Z" fill="white"/>
<path d="M81.1858 37.6534H80.9458C80.6258 38.32 80.1791 38.8134 79.6058 39.1334C79.0458 39.4534 78.4524 39.6134 77.8258 39.6134C77.1724 39.6134 76.5658 39.5067 76.0058 39.2934C75.4458 39.0667 74.9524 38.74 74.5258 38.3134C74.1124 37.8734 73.7858 37.34 73.5458 36.7134C73.3058 36.0867 73.1858 35.36 73.1858 34.5334V34.2134C73.1858 33.4 73.3058 32.68 73.5458 32.0534C73.7858 31.4267 74.1124 30.9 74.5258 30.4734C74.9524 30.0334 75.4458 29.7 76.0058 29.4734C76.5658 29.2467 77.1591 29.1334 77.7858 29.1334C78.4658 29.1334 79.0791 29.2867 79.6258 29.5934C80.1858 29.8867 80.6258 30.3467 80.9458 30.9734H81.1858V29.4134H82.7458V37.2934C82.7458 37.6934 82.9258 37.8934 83.2858 37.8934H83.7858V39.3334H82.7258C82.2724 39.3334 81.8991 39.1867 81.6058 38.8934C81.3258 38.6 81.1858 38.2267 81.1858 37.7734V37.6534ZM77.9858 38.1334C78.4524 38.1334 78.8791 38.0467 79.2658 37.8734C79.6658 37.7 80.0058 37.4534 80.2858 37.1334C80.5658 36.8134 80.7858 36.4334 80.9458 35.9934C81.1058 35.54 81.1858 35.04 81.1858 34.4934V34.2534C81.1858 33.72 81.1058 33.2334 80.9458 32.7934C80.7858 32.34 80.5591 31.9534 80.2658 31.6334C79.9858 31.3134 79.6458 31.0667 79.2458 30.8934C78.8591 30.7067 78.4391 30.6134 77.9858 30.6134C77.5191 30.6134 77.0924 30.7 76.7058 30.8734C76.3191 31.0467 75.9791 31.2934 75.6858 31.6134C75.4058 31.92 75.1858 32.3 75.0258 32.7534C74.8658 33.1934 74.7858 33.68 74.7858 34.2134V34.5334C74.7858 35.6667 75.0791 36.5534 75.6658 37.1934C76.2658 37.82 77.0391 38.1334 77.9858 38.1334Z" fill="white"/>
<path d="M95.5919 34.4934C95.5919 35.32 95.4519 36.0534 95.1719 36.6934C94.9052 37.32 94.5452 37.8534 94.0919 38.2934C93.6385 38.72 93.1052 39.0467 92.4919 39.2734C91.8919 39.5 91.2652 39.6134 90.6119 39.6134C89.9452 39.6134 89.3119 39.5 88.7119 39.2734C88.1119 39.0467 87.5852 38.72 87.1319 38.2934C86.6785 37.8534 86.3119 37.32 86.0319 36.6934C85.7652 36.0534 85.6319 35.32 85.6319 34.4934V34.2534C85.6319 33.44 85.7652 32.72 86.0319 32.0934C86.3119 31.4534 86.6785 30.9134 87.1319 30.4734C87.5985 30.0334 88.1319 29.7 88.7319 29.4734C89.3319 29.2467 89.9585 29.1334 90.6119 29.1334C91.2652 29.1334 91.8919 29.2467 92.4919 29.4734C93.0919 29.7 93.6185 30.0334 94.0719 30.4734C94.5385 30.9134 94.9052 31.4534 95.1719 32.0934C95.4519 32.72 95.5919 33.44 95.5919 34.2534V34.4934ZM90.6119 38.1334C91.0919 38.1334 91.5319 38.0534 91.9319 37.8934C92.3452 37.72 92.7052 37.4734 93.0119 37.1534C93.3185 36.8334 93.5585 36.4534 93.7319 36.0134C93.9052 35.56 93.9919 35.0534 93.9919 34.4934V34.2534C93.9919 33.72 93.9052 33.2334 93.7319 32.7934C93.5585 32.34 93.3185 31.9534 93.0119 31.6334C92.7052 31.3134 92.3452 31.0667 91.9319 30.8934C91.5185 30.7067 91.0785 30.6134 90.6119 30.6134C90.1452 30.6134 89.7052 30.7067 89.2919 30.8934C88.8785 31.0667 88.5185 31.3134 88.2119 31.6334C87.9052 31.9534 87.6652 32.34 87.4919 32.7934C87.3185 33.2334 87.2319 33.72 87.2319 34.2534V34.4934C87.2319 35.0534 87.3185 35.56 87.4919 36.0134C87.6652 36.4534 87.9052 36.8334 88.2119 37.1534C88.5185 37.4734 88.8719 37.72 89.2719 37.8934C89.6852 38.0534 90.1319 38.1334 90.6119 38.1334Z" fill="white"/>
</svg>
