<svg width="132" height="52" viewBox="0 0 132 52" fill="none" xmlns="http://www.w3.org/2000/svg">
<path fill-rule="evenodd" clip-rule="evenodd" d="M26 50C39.2548 50 50 39.2548 50 26C50 12.7452 39.2548 2 26 2C12.7452 2 2 12.7452 2 26C2 39.2548 12.7452 50 26 50ZM26 52C40.3594 52 52 40.3594 52 26C52 11.6406 40.3594 0 26 0C11.6406 0 0 11.6406 0 26C0 40.3594 11.6406 52 26 52Z" fill="#00060A"/>
<path fill-rule="evenodd" clip-rule="evenodd" d="M14.0712 17.7402L23.6327 23.3178V25.7267L14.0712 31.3042L12.666 28.8953L20.1628 24.5222L12.666 20.1491L14.0712 17.7402Z" fill="#00060A"/>
<path d="M26.7148 13.168L27.3025 13.0395C31.0384 12.2223 34.9431 12.7585 38.3204 14.5527L39.4635 15.16V36.6734L38.3204 37.2808C34.9431 39.0749 31.0384 39.6112 27.3025 38.794L26.7148 38.6654V13.168Z" fill="#00060A"/>
<path d="M71.0197 19.8135C70.913 20.3602 70.7264 20.8668 70.4597 21.3335C70.2064 21.8002 69.8797 22.2068 69.4797 22.5535C69.0797 22.8868 68.613 23.1468 68.0797 23.3335C67.5464 23.5202 66.953 23.6135 66.2997 23.6135C65.6064 23.6135 64.9464 23.5002 64.3197 23.2735C63.7064 23.0468 63.1664 22.7202 62.6997 22.2935C62.233 21.8535 61.8597 21.3202 61.5797 20.6935C61.313 20.0668 61.1797 19.3468 61.1797 18.5335V18.2935C61.1797 17.4935 61.313 16.7735 61.5797 16.1335C61.8597 15.4935 62.233 14.9535 62.6997 14.5135C63.1664 14.0735 63.7064 13.7335 64.3197 13.4935C64.9464 13.2535 65.6064 13.1335 66.2997 13.1335C66.9264 13.1335 67.5064 13.2268 68.0397 13.4135C68.573 13.6002 69.0397 13.8668 69.4397 14.2135C69.853 14.5468 70.1864 14.9468 70.4397 15.4135C70.7064 15.8802 70.8864 16.3868 70.9797 16.9335L69.4197 17.2935C69.3797 16.9468 69.2797 16.6135 69.1197 16.2935C68.973 15.9602 68.7664 15.6735 68.4997 15.4335C68.2464 15.1802 67.933 14.9802 67.5597 14.8335C67.1864 14.6868 66.753 14.6135 66.2597 14.6135C65.7797 14.6135 65.3264 14.7068 64.8997 14.8935C64.4864 15.0668 64.1197 15.3202 63.7997 15.6535C63.4797 15.9735 63.2264 16.3602 63.0397 16.8135C62.8664 17.2668 62.7797 17.7602 62.7797 18.2935V18.5335C62.7797 19.0935 62.8664 19.6002 63.0397 20.0535C63.2264 20.4935 63.4797 20.8668 63.7997 21.1735C64.1197 21.4802 64.493 21.7202 64.9197 21.8935C65.3464 22.0535 65.8064 22.1335 66.2997 22.1335C66.793 22.1335 67.2197 22.0602 67.5797 21.9135C67.953 21.7535 68.2664 21.5535 68.5197 21.3135C68.7864 21.0602 68.993 20.7735 69.1397 20.4535C69.2997 20.1335 69.4064 19.8002 69.4597 19.4535L71.0197 19.8135Z" fill="#00060A"/>
<path d="M73.4258 13.4135H77.0258V14.7335H77.2658C77.5191 14.1868 77.8791 13.7868 78.3458 13.5335C78.8124 13.2668 79.3458 13.1335 79.9458 13.1335C80.9458 13.1335 81.7524 13.4602 82.3658 14.1135C82.9791 14.7668 83.3058 15.7202 83.3458 16.9735L81.7058 17.2135C81.7058 16.2935 81.4858 15.6335 81.0458 15.2335C80.6058 14.8202 80.0658 14.6135 79.4258 14.6135C79.0124 14.6135 78.6524 14.6935 78.3458 14.8535C78.0524 15.0135 77.8058 15.2335 77.6058 15.5135C77.4058 15.7935 77.2591 16.1202 77.1658 16.4935C77.0724 16.8668 77.0258 17.2668 77.0258 17.6935V21.8935H79.5458V23.3335H73.1858V21.8935H75.4658V14.8535H73.4258V13.4135Z" fill="#00060A"/>
<path d="M93.3119 13.4135H94.8719V23.3335H93.3119V21.5335H93.0719C92.7519 22.1735 92.3319 22.6802 91.8119 23.0535C91.2919 23.4268 90.6319 23.6135 89.8319 23.6135C89.2852 23.6135 88.7785 23.5202 88.3119 23.3335C87.8585 23.1602 87.4652 22.8935 87.1319 22.5335C86.8119 22.1735 86.5585 21.7268 86.3719 21.1935C86.1985 20.6602 86.1119 20.0402 86.1119 19.3335V13.4135H87.6719V19.1335C87.6719 20.1735 87.8852 20.9335 88.3119 21.4135C88.7385 21.8935 89.3919 22.1335 90.2719 22.1335C91.2185 22.1335 91.9585 21.8135 92.4919 21.1735C93.0385 20.5202 93.3119 19.6535 93.3119 18.5735V13.4135Z" fill="#00060A"/>
<path d="M100.038 23.3335H98.478V13.4135H100.038V15.0935H100.278C100.891 13.7868 101.958 13.1335 103.478 13.1335C104.625 13.1335 105.538 13.4935 106.218 14.2135C106.898 14.9202 107.238 15.9868 107.238 17.4135V23.3335H105.678V17.7335C105.678 16.6935 105.445 15.9135 104.978 15.3935C104.511 14.8735 103.878 14.6135 103.078 14.6135C102.131 14.6135 101.385 14.9402 100.838 15.5935C100.305 16.2335 100.038 17.0935 100.038 18.1735V23.3335Z" fill="#00060A"/>
<path d="M120.004 19.8135C119.897 20.3602 119.711 20.8668 119.444 21.3335C119.191 21.8002 118.864 22.2068 118.464 22.5535C118.064 22.8868 117.597 23.1468 117.064 23.3335C116.531 23.5202 115.937 23.6135 115.284 23.6135C114.591 23.6135 113.931 23.5002 113.304 23.2735C112.691 23.0468 112.151 22.7202 111.684 22.2935C111.217 21.8535 110.844 21.3202 110.564 20.6935C110.297 20.0668 110.164 19.3468 110.164 18.5335V18.2935C110.164 17.4935 110.297 16.7735 110.564 16.1335C110.844 15.4935 111.217 14.9535 111.684 14.5135C112.151 14.0735 112.691 13.7335 113.304 13.4935C113.931 13.2535 114.591 13.1335 115.284 13.1335C115.911 13.1335 116.491 13.2268 117.024 13.4135C117.557 13.6002 118.024 13.8668 118.424 14.2135C118.837 14.5468 119.171 14.9468 119.424 15.4135C119.691 15.8802 119.871 16.3868 119.964 16.9335L118.404 17.2935C118.364 16.9468 118.264 16.6135 118.104 16.2935C117.957 15.9602 117.751 15.6735 117.484 15.4335C117.231 15.1802 116.917 14.9802 116.544 14.8335C116.171 14.6868 115.737 14.6135 115.244 14.6135C114.764 14.6135 114.311 14.7068 113.884 14.8935C113.471 15.0668 113.104 15.3202 112.784 15.6535C112.464 15.9735 112.211 16.3602 112.024 16.8135C111.851 17.2668 111.764 17.7602 111.764 18.2935V18.5335C111.764 19.0935 111.851 19.6002 112.024 20.0535C112.211 20.4935 112.464 20.8668 112.784 21.1735C113.104 21.4802 113.477 21.7202 113.904 21.8935C114.331 22.0535 114.791 22.1335 115.284 22.1335C115.777 22.1335 116.204 22.0602 116.564 21.9135C116.937 21.7535 117.251 21.5535 117.504 21.3135C117.771 21.0602 117.977 20.7735 118.124 20.4535C118.284 20.1335 118.391 19.8002 118.444 19.4535L120.004 19.8135Z" fill="#00060A"/>
<path d="M124.53 23.3335H122.97V9.3335H124.53V15.2135H124.77C125.077 14.5735 125.503 14.0668 126.05 13.6935C126.61 13.3202 127.29 13.1335 128.09 13.1335C129.17 13.1335 130.043 13.4935 130.71 14.2135C131.39 14.9202 131.73 15.9868 131.73 17.4135V23.3335H130.17V17.7335C130.17 16.6935 129.937 15.9135 129.47 15.3935C129.003 14.8735 128.37 14.6135 127.57 14.6135C126.623 14.6135 125.877 14.9402 125.33 15.5935C124.797 16.2335 124.53 17.0935 124.53 18.1735V23.3335Z" fill="#00060A"/>
<path d="M69.4197 37.8135H69.1797C69.0197 38.1202 68.813 38.3868 68.5597 38.6135C68.3197 38.8402 68.053 39.0268 67.7597 39.1735C67.4797 39.3202 67.1797 39.4268 66.8597 39.4935C66.5397 39.5735 66.233 39.6135 65.9397 39.6135C65.273 39.6135 64.653 39.5002 64.0797 39.2735C63.5064 39.0468 62.9997 38.7202 62.5597 38.2935C62.133 37.8668 61.793 37.3402 61.5397 36.7135C61.2997 36.0735 61.1797 35.3468 61.1797 34.5335V34.2135C61.1797 33.4135 61.3064 32.7002 61.5597 32.0735C61.813 31.4335 62.153 30.9002 62.5797 30.4735C63.0064 30.0335 63.5064 29.7002 64.0797 29.4735C64.653 29.2468 65.2597 29.1335 65.8997 29.1335C66.5797 29.1335 67.213 29.2868 67.7997 29.5935C68.3997 29.8868 68.8597 30.3468 69.1797 30.9735H69.4197V25.3335H70.9797V39.3335H69.4197V37.8135ZM66.0997 38.1335C66.5664 38.1335 66.9997 38.0468 67.3997 37.8735C67.7997 37.7002 68.1464 37.4535 68.4397 37.1335C68.7464 36.8135 68.9864 36.4335 69.1597 35.9935C69.333 35.5402 69.4197 35.0402 69.4197 34.4935V34.2535C69.4197 33.7202 69.333 33.2335 69.1597 32.7935C68.9864 32.3402 68.7464 31.9535 68.4397 31.6335C68.1464 31.3135 67.793 31.0668 67.3797 30.8935C66.9797 30.7068 66.553 30.6135 66.0997 30.6135C65.633 30.6135 65.193 30.7002 64.7797 30.8735C64.3797 31.0468 64.0264 31.2935 63.7197 31.6135C63.4264 31.9335 63.193 32.3135 63.0197 32.7535C62.8597 33.1935 62.7797 33.6802 62.7797 34.2135V34.5335C62.7797 35.0935 62.8597 35.5935 63.0197 36.0335C63.193 36.4735 63.4264 36.8535 63.7197 37.1735C64.0264 37.4802 64.3797 37.7202 64.7797 37.8935C65.1797 38.0535 65.6197 38.1335 66.0997 38.1335Z" fill="#00060A"/>
<path d="M81.1858 37.6535H80.9458C80.6258 38.3202 80.1791 38.8135 79.6058 39.1335C79.0458 39.4535 78.4524 39.6135 77.8258 39.6135C77.1724 39.6135 76.5658 39.5068 76.0058 39.2935C75.4458 39.0668 74.9524 38.7402 74.5258 38.3135C74.1124 37.8735 73.7858 37.3402 73.5458 36.7135C73.3058 36.0868 73.1858 35.3602 73.1858 34.5335V34.2135C73.1858 33.4002 73.3058 32.6802 73.5458 32.0535C73.7858 31.4268 74.1124 30.9002 74.5258 30.4735C74.9524 30.0335 75.4458 29.7002 76.0058 29.4735C76.5658 29.2468 77.1591 29.1335 77.7858 29.1335C78.4658 29.1335 79.0791 29.2868 79.6258 29.5935C80.1858 29.8868 80.6258 30.3468 80.9458 30.9735H81.1858V29.4135H82.7458V37.2935C82.7458 37.6935 82.9258 37.8935 83.2858 37.8935H83.7858V39.3335H82.7258C82.2724 39.3335 81.8991 39.1868 81.6058 38.8935C81.3258 38.6002 81.1858 38.2268 81.1858 37.7735V37.6535ZM77.9858 38.1335C78.4524 38.1335 78.8791 38.0468 79.2658 37.8735C79.6658 37.7002 80.0058 37.4535 80.2858 37.1335C80.5658 36.8135 80.7858 36.4335 80.9458 35.9935C81.1058 35.5402 81.1858 35.0402 81.1858 34.4935V34.2535C81.1858 33.7202 81.1058 33.2335 80.9458 32.7935C80.7858 32.3402 80.5591 31.9535 80.2658 31.6335C79.9858 31.3135 79.6458 31.0668 79.2458 30.8935C78.8591 30.7068 78.4391 30.6135 77.9858 30.6135C77.5191 30.6135 77.0924 30.7002 76.7058 30.8735C76.3191 31.0468 75.9791 31.2935 75.6858 31.6135C75.4058 31.9202 75.1858 32.3002 75.0258 32.7535C74.8658 33.1935 74.7858 33.6802 74.7858 34.2135V34.5335C74.7858 35.6668 75.0791 36.5535 75.6658 37.1935C76.2658 37.8202 77.0391 38.1335 77.9858 38.1335Z" fill="#00060A"/>
<path d="M95.5919 34.4935C95.5919 35.3202 95.4519 36.0535 95.1719 36.6935C94.9052 37.3202 94.5452 37.8535 94.0919 38.2935C93.6385 38.7202 93.1052 39.0468 92.4919 39.2735C91.8919 39.5002 91.2652 39.6135 90.6119 39.6135C89.9452 39.6135 89.3119 39.5002 88.7119 39.2735C88.1119 39.0468 87.5852 38.7202 87.1319 38.2935C86.6785 37.8535 86.3119 37.3202 86.0319 36.6935C85.7652 36.0535 85.6319 35.3202 85.6319 34.4935V34.2535C85.6319 33.4402 85.7652 32.7202 86.0319 32.0935C86.3119 31.4535 86.6785 30.9135 87.1319 30.4735C87.5985 30.0335 88.1319 29.7002 88.7319 29.4735C89.3319 29.2468 89.9585 29.1335 90.6119 29.1335C91.2652 29.1335 91.8919 29.2468 92.4919 29.4735C93.0919 29.7002 93.6185 30.0335 94.0719 30.4735C94.5385 30.9135 94.9052 31.4535 95.1719 32.0935C95.4519 32.7202 95.5919 33.4402 95.5919 34.2535V34.4935ZM90.6119 38.1335C91.0919 38.1335 91.5319 38.0535 91.9319 37.8935C92.3452 37.7202 92.7052 37.4735 93.0119 37.1535C93.3185 36.8335 93.5585 36.4535 93.7319 36.0135C93.9052 35.5602 93.9919 35.0535 93.9919 34.4935V34.2535C93.9919 33.7202 93.9052 33.2335 93.7319 32.7935C93.5585 32.3402 93.3185 31.9535 93.0119 31.6335C92.7052 31.3135 92.3452 31.0668 91.9319 30.8935C91.5185 30.7068 91.0785 30.6135 90.6119 30.6135C90.1452 30.6135 89.7052 30.7068 89.2919 30.8935C88.8785 31.0668 88.5185 31.3135 88.2119 31.6335C87.9052 31.9535 87.6652 32.3402 87.4919 32.7935C87.3185 33.2335 87.2319 33.7202 87.2319 34.2535V34.4935C87.2319 35.0535 87.3185 35.5602 87.4919 36.0135C87.6652 36.4535 87.9052 36.8335 88.2119 37.1535C88.5185 37.4735 88.8719 37.7202 89.2719 37.8935C89.6852 38.0535 90.1319 38.1335 90.6119 38.1335Z" fill="#00060A"/>
</svg>
