<svg width="1920" height="8004" viewBox="0 0 1920 8004" fill="none" xmlns="http://www.w3.org/2000/svg">
<g opacity="0.12">
<path d="M480 0L480 10323" stroke="#00060A"/>
<path d="M0 0L0.000451233 10323" stroke="#00060A"/>
<path d="M240 0L240 10323" stroke="#00060A"/>
<path d="M720 0L720 10323" stroke="#00060A"/>
<path d="M960 0L960 10323" stroke="#00060A"/>
<path d="M1200 0L1200 10323" stroke="#00060A"/>
<path d="M1440 0L1440 10323" stroke="#00060A"/>
<path d="M1680 0L1680 10323" stroke="#00060A"/>
<path d="M1920 0L1920 10323" stroke="#00060A"/>
<path d="M1920 0L0.000101805 0" stroke="#00060A"/>
<path d="M1920 240L0.000101805 240" stroke="#00060A"/>
<path d="M1920 480L0.000101805 480" stroke="#00060A"/>
<path d="M1920 720L0.000101805 720" stroke="#00060A"/>
<path d="M1920 960L0.000101805 960" stroke="#00060A"/>
<path d="M1920 1200L0.000101805 1200" stroke="#00060A"/>
<path d="M1920 1440L0.000101805 1440" stroke="#00060A"/>
<path d="M1920 1680L0.000101805 1680" stroke="#00060A"/>
<path d="M1920 1920L0.000101805 1920" stroke="#00060A"/>
<path d="M1920 2160L0.000101805 2160" stroke="#00060A"/>
<path d="M1920 2400L0.000101805 2400" stroke="#00060A"/>
<path d="M1920 2640L0.000101805 2640" stroke="#00060A"/>
<path d="M1920 2880L0.000101805 2880" stroke="#00060A"/>
<path d="M1920 3120L0.000101805 3120" stroke="#00060A"/>
<path d="M1920 3360L0.000101805 3360" stroke="#00060A"/>
<path d="M1920 3600L0.000101805 3600" stroke="#00060A"/>
<path d="M1920 3840L0.000101805 3840" stroke="#00060A"/>
<path d="M1920 4080L0.000101805 4080" stroke="#00060A"/>
<path d="M1920 4320L0.000101805 4320" stroke="#00060A"/>
<path d="M1920 4560L0.000101805 4560" stroke="#00060A"/>
<path d="M1920 4800L0.000101805 4800" stroke="#00060A"/>
<path d="M1920 5040L0.000101805 5040" stroke="#00060A"/>
<path d="M1920 5280L0.000101805 5280" stroke="#00060A"/>
<path d="M1920 5520L0.000101805 5520" stroke="#00060A"/>
<path d="M1920 5760L0.000101805 5760" stroke="#00060A"/>
<path d="M1920 6000L0.000101805 6000" stroke="#00060A"/>
<path d="M1920 6240L0.000101805 6240" stroke="#00060A"/>
<path d="M1920 6480L0.000101805 6480" stroke="#00060A"/>
<path d="M1920 6720L0.000101805 6720" stroke="#00060A"/>
<path d="M1920 6960L0.000101805 6960" stroke="#00060A"/>
<path d="M1920 7200L0.000101805 7200" stroke="#00060A"/>
<path d="M1920 7440L0.000101805 7440" stroke="#00060A"/>
<path d="M1920 7680L0.000101805 7680" stroke="#00060A"/>
<path d="M1920 7920L0.000101805 7920" stroke="#00060A"/>
<circle cx="-0.199219" r="3" fill="#00060A"/>
<circle cx="239.801" r="3" fill="#00060A"/>
<circle cx="479.801" r="3" fill="#00060A"/>
<circle cx="719.801" r="3" fill="#00060A"/>
<circle cx="959.801" r="3" fill="#00060A"/>
<circle cx="1199.8" r="3" fill="#00060A"/>
<circle cx="1439.8" r="3" fill="#00060A"/>
<circle cx="1679.8" r="3" fill="#00060A"/>
<circle cx="1919.8" r="3" fill="#00060A"/>
<circle cx="-0.199219" cy="240" r="3" fill="#00060A"/>
<circle cx="239.801" cy="240" r="3" fill="#00060A"/>
<circle cx="479.801" cy="240" r="3" fill="#00060A"/>
<circle cx="719.801" cy="240" r="3" fill="#00060A"/>
<circle cx="959.801" cy="240" r="3" fill="#00060A"/>
<circle cx="1199.8" cy="240" r="3" fill="#00060A"/>
<circle cx="1439.8" cy="240" r="3" fill="#00060A"/>
<circle cx="1679.8" cy="240" r="3" fill="#00060A"/>
<circle cx="1919.8" cy="240" r="3" fill="#00060A"/>
<circle cx="-0.199219" cy="480" r="3" fill="#00060A"/>
<circle cx="239.801" cy="480" r="3" fill="#00060A"/>
<circle cx="479.801" cy="480" r="3" fill="#00060A"/>
<circle cx="719.801" cy="480" r="3" fill="#00060A"/>
<circle cx="959.801" cy="480" r="3" fill="#00060A"/>
<circle cx="1199.8" cy="480" r="3" fill="#00060A"/>
<circle cx="1439.8" cy="480" r="3" fill="#00060A"/>
<circle cx="1679.8" cy="480" r="3" fill="#00060A"/>
<circle cx="1919.8" cy="480" r="3" fill="#00060A"/>
<circle cx="-0.199219" cy="720" r="3" fill="#00060A"/>
<circle cx="239.801" cy="720" r="3" fill="#00060A"/>
<circle cx="479.801" cy="720" r="3" fill="#00060A"/>
<circle cx="719.801" cy="720" r="3" fill="#00060A"/>
<circle cx="959.801" cy="720" r="3" fill="#00060A"/>
<circle cx="1199.8" cy="720" r="3" fill="#00060A"/>
<circle cx="1439.8" cy="720" r="3" fill="#00060A"/>
<circle cx="1679.8" cy="720" r="3" fill="#00060A"/>
<circle cx="1919.8" cy="720" r="3" fill="#00060A"/>
<circle cx="-0.199219" cy="960" r="3" fill="#00060A"/>
<circle cx="239.801" cy="960" r="3" fill="#00060A"/>
<circle cx="479.801" cy="960" r="3" fill="#00060A"/>
<circle cx="719.801" cy="960" r="3" fill="#00060A"/>
<circle cx="959.801" cy="960" r="3" fill="#00060A"/>
<circle cx="1199.8" cy="960" r="3" fill="#00060A"/>
<circle cx="1439.8" cy="960" r="3" fill="#00060A"/>
<circle cx="1679.8" cy="960" r="3" fill="#00060A"/>
<circle cx="1919.8" cy="960" r="3" fill="#00060A"/>
<circle cx="-0.199219" cy="1200" r="3" fill="#00060A"/>
<circle cx="239.801" cy="1200" r="3" fill="#00060A"/>
<circle cx="479.801" cy="1200" r="3" fill="#00060A"/>
<circle cx="719.801" cy="1200" r="3" fill="#00060A"/>
<circle cx="959.801" cy="1200" r="3" fill="#00060A"/>
<circle cx="1199.8" cy="1200" r="3" fill="#00060A"/>
<circle cx="1439.8" cy="1200" r="3" fill="#00060A"/>
<circle cx="1679.8" cy="1200" r="3" fill="#00060A"/>
<circle cx="1919.8" cy="1200" r="3" fill="#00060A"/>
<circle cx="-0.199219" cy="1440" r="3" fill="#00060A"/>
<circle cx="239.801" cy="1440" r="3" fill="#00060A"/>
<circle cx="479.801" cy="1440" r="3" fill="#00060A"/>
<circle cx="719.801" cy="1440" r="3" fill="#00060A"/>
<circle cx="959.801" cy="1440" r="3" fill="#00060A"/>
<circle cx="1199.8" cy="1440" r="3" fill="#00060A"/>
<circle cx="1439.8" cy="1440" r="3" fill="#00060A"/>
<circle cx="1679.8" cy="1440" r="3" fill="#00060A"/>
<circle cx="1919.8" cy="1440" r="3" fill="#00060A"/>
<circle cx="-0.199219" cy="1680" r="3" fill="#00060A"/>
<circle cx="239.801" cy="1680" r="3" fill="#00060A"/>
<circle cx="479.801" cy="1680" r="3" fill="#00060A"/>
<circle cx="719.801" cy="1680" r="3" fill="#00060A"/>
<circle cx="959.801" cy="1680" r="3" fill="#00060A"/>
<circle cx="1199.8" cy="1680" r="3" fill="#00060A"/>
<circle cx="1439.8" cy="1680" r="3" fill="#00060A"/>
<circle cx="1679.8" cy="1680" r="3" fill="#00060A"/>
<circle cx="1919.8" cy="1680" r="3" fill="#00060A"/>
<circle cx="-0.199219" cy="1920" r="3" fill="#00060A"/>
<circle cx="239.801" cy="1920" r="3" fill="#00060A"/>
<circle cx="479.801" cy="1920" r="3" fill="#00060A"/>
<circle cx="719.801" cy="1920" r="3" fill="#00060A"/>
<circle cx="959.801" cy="1920" r="3" fill="#00060A"/>
<circle cx="1199.8" cy="1920" r="3" fill="#00060A"/>
<circle cx="1439.8" cy="1920" r="3" fill="#00060A"/>
<circle cx="1679.8" cy="1920" r="3" fill="#00060A"/>
<circle cx="1919.8" cy="1920" r="3" fill="#00060A"/>
<circle cx="-0.199219" cy="2160" r="3" fill="#00060A"/>
<circle cx="239.801" cy="2160" r="3" fill="#00060A"/>
<circle cx="479.801" cy="2160" r="3" fill="#00060A"/>
<circle cx="719.801" cy="2160" r="3" fill="#00060A"/>
<circle cx="959.801" cy="2160" r="3" fill="#00060A"/>
<circle cx="1199.8" cy="2160" r="3" fill="#00060A"/>
<circle cx="1439.8" cy="2160" r="3" fill="#00060A"/>
<circle cx="1679.8" cy="2160" r="3" fill="#00060A"/>
<circle cx="1919.8" cy="2160" r="3" fill="#00060A"/>
<circle cx="-0.199219" cy="2400" r="3" fill="#00060A"/>
<circle cx="239.801" cy="2400" r="3" fill="#00060A"/>
<circle cx="479.801" cy="2400" r="3" fill="#00060A"/>
<circle cx="719.801" cy="2400" r="3" fill="#00060A"/>
<circle cx="959.801" cy="2400" r="3" fill="#00060A"/>
<circle cx="1199.8" cy="2400" r="3" fill="#00060A"/>
<circle cx="1439.8" cy="2400" r="3" fill="#00060A"/>
<circle cx="1679.8" cy="2400" r="3" fill="#00060A"/>
<circle cx="1919.8" cy="2400" r="3" fill="#00060A"/>
<circle cx="-0.199219" cy="2640" r="3" fill="#00060A"/>
<circle cx="239.801" cy="2640" r="3" fill="#00060A"/>
<circle cx="479.801" cy="2640" r="3" fill="#00060A"/>
<circle cx="719.801" cy="2640" r="3" fill="#00060A"/>
<circle cx="959.801" cy="2640" r="3" fill="#00060A"/>
<circle cx="1199.8" cy="2640" r="3" fill="#00060A"/>
<circle cx="1439.8" cy="2640" r="3" fill="#00060A"/>
<circle cx="1679.8" cy="2640" r="3" fill="#00060A"/>
<circle cx="1919.8" cy="2640" r="3" fill="#00060A"/>
<circle cx="-0.199219" cy="2880" r="3" fill="#00060A"/>
<circle cx="239.801" cy="2880" r="3" fill="#00060A"/>
<circle cx="479.801" cy="2880" r="3" fill="#00060A"/>
<circle cx="719.801" cy="2880" r="3" fill="#00060A"/>
<circle cx="959.801" cy="2880" r="3" fill="#00060A"/>
<circle cx="1199.8" cy="2880" r="3" fill="#00060A"/>
<circle cx="1439.8" cy="2880" r="3" fill="#00060A"/>
<circle cx="1679.8" cy="2880" r="3" fill="#00060A"/>
<circle cx="1919.8" cy="2880" r="3" fill="#00060A"/>
<circle cx="-0.199219" cy="3120" r="3" fill="#00060A"/>
<circle cx="239.801" cy="3120" r="3" fill="#00060A"/>
<circle cx="479.801" cy="3120" r="3" fill="#00060A"/>
<circle cx="719.801" cy="3120" r="3" fill="#00060A"/>
<circle cx="959.801" cy="3120" r="3" fill="#00060A"/>
<circle cx="1199.8" cy="3120" r="3" fill="#00060A"/>
<circle cx="1439.8" cy="3120" r="3" fill="#00060A"/>
<circle cx="1679.8" cy="3120" r="3" fill="#00060A"/>
<circle cx="1919.8" cy="3120" r="3" fill="#00060A"/>
<circle cx="-0.199219" cy="3360" r="3" fill="#00060A"/>
<circle cx="239.801" cy="3360" r="3" fill="#00060A"/>
<circle cx="479.801" cy="3360" r="3" fill="#00060A"/>
<circle cx="719.801" cy="3360" r="3" fill="#00060A"/>
<circle cx="959.801" cy="3360" r="3" fill="#00060A"/>
<circle cx="1199.8" cy="3360" r="3" fill="#00060A"/>
<circle cx="1439.8" cy="3360" r="3" fill="#00060A"/>
<circle cx="1679.8" cy="3360" r="3" fill="#00060A"/>
<circle cx="1919.8" cy="3360" r="3" fill="#00060A"/>
<circle cx="-0.199219" cy="3600" r="3" fill="#00060A"/>
<circle cx="239.801" cy="3600" r="3" fill="#00060A"/>
<circle cx="479.801" cy="3600" r="3" fill="#00060A"/>
<circle cx="719.801" cy="3600" r="3" fill="#00060A"/>
<circle cx="959.801" cy="3600" r="3" fill="#00060A"/>
<circle cx="1199.8" cy="3600" r="3" fill="#00060A"/>
<circle cx="1439.8" cy="3600" r="3" fill="#00060A"/>
<circle cx="1679.8" cy="3600" r="3" fill="#00060A"/>
<circle cx="1919.8" cy="3600" r="3" fill="#00060A"/>
<circle cx="-0.199219" cy="3840" r="3" fill="#00060A"/>
<circle cx="239.801" cy="3840" r="3" fill="#00060A"/>
<circle cx="479.801" cy="3840" r="3" fill="#00060A"/>
<circle cx="719.801" cy="3840" r="3" fill="#00060A"/>
<circle cx="959.801" cy="3840" r="3" fill="#00060A"/>
<circle cx="1199.8" cy="3840" r="3" fill="#00060A"/>
<circle cx="1439.8" cy="3840" r="3" fill="#00060A"/>
<circle cx="1679.8" cy="3840" r="3" fill="#00060A"/>
<circle cx="1919.8" cy="3840" r="3" fill="#00060A"/>
<circle cx="-0.199219" cy="4080" r="3" fill="#00060A"/>
<circle cx="239.801" cy="4080" r="3" fill="#00060A"/>
<circle cx="479.801" cy="4080" r="3" fill="#00060A"/>
<circle cx="719.801" cy="4080" r="3" fill="#00060A"/>
<circle cx="959.801" cy="4080" r="3" fill="#00060A"/>
<circle cx="1199.8" cy="4080" r="3" fill="#00060A"/>
<circle cx="1439.8" cy="4080" r="3" fill="#00060A"/>
<circle cx="1679.8" cy="4080" r="3" fill="#00060A"/>
<circle cx="1919.8" cy="4080" r="3" fill="#00060A"/>
<circle cx="-0.199219" cy="4320" r="3" fill="#00060A"/>
<circle cx="239.801" cy="4320" r="3" fill="#00060A"/>
<circle cx="479.801" cy="4320" r="3" fill="#00060A"/>
<circle cx="719.801" cy="4320" r="3" fill="#00060A"/>
<circle cx="959.801" cy="4320" r="3" fill="#00060A"/>
<circle cx="1199.8" cy="4320" r="3" fill="#00060A"/>
<circle cx="1439.8" cy="4320" r="3" fill="#00060A"/>
<circle cx="1679.8" cy="4320" r="3" fill="#00060A"/>
<circle cx="1919.8" cy="4320" r="3" fill="#00060A"/>
<circle cx="-0.199219" cy="4560" r="3" fill="#00060A"/>
<circle cx="239.801" cy="4560" r="3" fill="#00060A"/>
<circle cx="479.801" cy="4560" r="3" fill="#00060A"/>
<circle cx="719.801" cy="4560" r="3" fill="#00060A"/>
<circle cx="959.801" cy="4560" r="3" fill="#00060A"/>
<circle cx="1199.8" cy="4560" r="3" fill="#00060A"/>
<circle cx="1439.8" cy="4560" r="3" fill="#00060A"/>
<circle cx="1679.8" cy="4560" r="3" fill="#00060A"/>
<circle cx="1919.8" cy="4560" r="3" fill="#00060A"/>
<circle cx="-0.199219" cy="4800" r="3" fill="#00060A"/>
<circle cx="239.801" cy="4800" r="3" fill="#00060A"/>
<circle cx="479.801" cy="4800" r="3" fill="#00060A"/>
<circle cx="719.801" cy="4800" r="3" fill="#00060A"/>
<circle cx="959.801" cy="4800" r="3" fill="#00060A"/>
<circle cx="1199.8" cy="4800" r="3" fill="#00060A"/>
<circle cx="1439.8" cy="4800" r="3" fill="#00060A"/>
<circle cx="1679.8" cy="4800" r="3" fill="#00060A"/>
<circle cx="1919.8" cy="4800" r="3" fill="#00060A"/>
<circle cx="-0.199219" cy="5040" r="3" fill="#00060A"/>
<circle cx="239.801" cy="5040" r="3" fill="#00060A"/>
<circle cx="479.801" cy="5040" r="3" fill="#00060A"/>
<circle cx="719.801" cy="5040" r="3" fill="#00060A"/>
<circle cx="959.801" cy="5040" r="3" fill="#00060A"/>
<circle cx="1199.8" cy="5040" r="3" fill="#00060A"/>
<circle cx="1439.8" cy="5040" r="3" fill="#00060A"/>
<circle cx="1679.8" cy="5040" r="3" fill="#00060A"/>
<circle cx="1919.8" cy="5040" r="3" fill="#00060A"/>
<circle cx="-0.199219" cy="5280" r="3" fill="#00060A"/>
<circle cx="239.801" cy="5280" r="3" fill="#00060A"/>
<circle cx="479.801" cy="5280" r="3" fill="#00060A"/>
<circle cx="719.801" cy="5280" r="3" fill="#00060A"/>
<circle cx="959.801" cy="5280" r="3" fill="#00060A"/>
<circle cx="1199.8" cy="5280" r="3" fill="#00060A"/>
<circle cx="1439.8" cy="5280" r="3" fill="#00060A"/>
<circle cx="1679.8" cy="5280" r="3" fill="#00060A"/>
<circle cx="1919.8" cy="5280" r="3" fill="#00060A"/>
<circle cx="-0.199219" cy="5520" r="3" fill="#00060A"/>
<circle cx="239.801" cy="5520" r="3" fill="#00060A"/>
<circle cx="479.801" cy="5520" r="3" fill="#00060A"/>
<circle cx="719.801" cy="5520" r="3" fill="#00060A"/>
<circle cx="959.801" cy="5520" r="3" fill="#00060A"/>
<circle cx="1199.8" cy="5520" r="3" fill="#00060A"/>
<circle cx="1439.8" cy="5520" r="3" fill="#00060A"/>
<circle cx="1679.8" cy="5520" r="3" fill="#00060A"/>
<circle cx="1919.8" cy="5520" r="3" fill="#00060A"/>
<circle cx="-0.199219" cy="5760" r="3" fill="#00060A"/>
<circle cx="239.801" cy="5760" r="3" fill="#00060A"/>
<circle cx="479.801" cy="5760" r="3" fill="#00060A"/>
<circle cx="719.801" cy="5760" r="3" fill="#00060A"/>
<circle cx="959.801" cy="5760" r="3" fill="#00060A"/>
<circle cx="1199.8" cy="5760" r="3" fill="#00060A"/>
<circle cx="1439.8" cy="5760" r="3" fill="#00060A"/>
<circle cx="1679.8" cy="5760" r="3" fill="#00060A"/>
<circle cx="1919.8" cy="5760" r="3" fill="#00060A"/>
<circle cx="-0.199219" cy="6000" r="3" fill="#00060A"/>
<circle cx="239.801" cy="6000" r="3" fill="#00060A"/>
<circle cx="479.801" cy="6000" r="3" fill="#00060A"/>
<circle cx="719.801" cy="6000" r="3" fill="#00060A"/>
<circle cx="959.801" cy="6000" r="3" fill="#00060A"/>
<circle cx="1199.8" cy="6000" r="3" fill="#00060A"/>
<circle cx="1439.8" cy="6000" r="3" fill="#00060A"/>
<circle cx="1679.8" cy="6000" r="3" fill="#00060A"/>
<circle cx="1919.8" cy="6000" r="3" fill="#00060A"/>
<circle cx="-0.199219" cy="6240" r="3" fill="#00060A"/>
<circle cx="239.801" cy="6240" r="3" fill="#00060A"/>
<circle cx="479.801" cy="6240" r="3" fill="#00060A"/>
<circle cx="719.801" cy="6240" r="3" fill="#00060A"/>
<circle cx="959.801" cy="6240" r="3" fill="#00060A"/>
<circle cx="1199.8" cy="6240" r="3" fill="#00060A"/>
<circle cx="1439.8" cy="6240" r="3" fill="#00060A"/>
<circle cx="1679.8" cy="6240" r="3" fill="#00060A"/>
<circle cx="1919.8" cy="6240" r="3" fill="#00060A"/>
<circle cx="-0.199219" cy="6480" r="3" fill="#00060A"/>
<circle cx="239.801" cy="6480" r="3" fill="#00060A"/>
<circle cx="479.801" cy="6480" r="3" fill="#00060A"/>
<circle cx="719.801" cy="6480" r="3" fill="#00060A"/>
<circle cx="959.801" cy="6480" r="3" fill="#00060A"/>
<circle cx="1199.8" cy="6480" r="3" fill="#00060A"/>
<circle cx="1439.8" cy="6480" r="3" fill="#00060A"/>
<circle cx="1679.8" cy="6480" r="3" fill="#00060A"/>
<circle cx="1919.8" cy="6480" r="3" fill="#00060A"/>
<circle cx="-0.199219" cy="6720" r="3" fill="#00060A"/>
<circle cx="239.801" cy="6720" r="3" fill="#00060A"/>
<circle cx="479.801" cy="6720" r="3" fill="#00060A"/>
<circle cx="719.801" cy="6720" r="3" fill="#00060A"/>
<circle cx="959.801" cy="6720" r="3" fill="#00060A"/>
<circle cx="1199.8" cy="6720" r="3" fill="#00060A"/>
<circle cx="1439.8" cy="6720" r="3" fill="#00060A"/>
<circle cx="1679.8" cy="6720" r="3" fill="#00060A"/>
<circle cx="1919.8" cy="6720" r="3" fill="#00060A"/>
<circle cx="-0.199219" cy="6960" r="3" fill="#00060A"/>
<circle cx="239.801" cy="6960" r="3" fill="#00060A"/>
<circle cx="479.801" cy="6960" r="3" fill="#00060A"/>
<circle cx="719.801" cy="6960" r="3" fill="#00060A"/>
<circle cx="959.801" cy="6960" r="3" fill="#00060A"/>
<circle cx="1199.8" cy="6960" r="3" fill="#00060A"/>
<circle cx="1439.8" cy="6960" r="3" fill="#00060A"/>
<circle cx="1679.8" cy="6960" r="3" fill="#00060A"/>
<circle cx="1919.8" cy="6960" r="3" fill="#00060A"/>
<circle cx="-0.199219" cy="7200" r="3" fill="#00060A"/>
<circle cx="239.801" cy="7200" r="3" fill="#00060A"/>
<circle cx="479.801" cy="7200" r="3" fill="#00060A"/>
<circle cx="719.801" cy="7200" r="3" fill="#00060A"/>
<circle cx="959.801" cy="7200" r="3" fill="#00060A"/>
<circle cx="1199.8" cy="7200" r="3" fill="#00060A"/>
<circle cx="1439.8" cy="7200" r="3" fill="#00060A"/>
<circle cx="1679.8" cy="7200" r="3" fill="#00060A"/>
<circle cx="1919.8" cy="7200" r="3" fill="#00060A"/>
<circle cx="-0.199219" cy="7440" r="3" fill="#00060A"/>
<circle cx="239.801" cy="7440" r="3" fill="#00060A"/>
<circle cx="479.801" cy="7440" r="3" fill="#00060A"/>
<circle cx="719.801" cy="7440" r="3" fill="#00060A"/>
<circle cx="959.801" cy="7440" r="3" fill="#00060A"/>
<circle cx="1199.8" cy="7440" r="3" fill="#00060A"/>
<circle cx="1439.8" cy="7440" r="3" fill="#00060A"/>
<circle cx="1679.8" cy="7440" r="3" fill="#00060A"/>
<circle cx="1919.8" cy="7440" r="3" fill="#00060A"/>
<circle cx="-0.199219" cy="7680" r="3" fill="#00060A"/>
<circle cx="239.801" cy="7680" r="3" fill="#00060A"/>
<circle cx="479.801" cy="7680" r="3" fill="#00060A"/>
<circle cx="719.801" cy="7680" r="3" fill="#00060A"/>
<circle cx="959.801" cy="7680" r="3" fill="#00060A"/>
<circle cx="1199.8" cy="7680" r="3" fill="#00060A"/>
<circle cx="1439.8" cy="7680" r="3" fill="#00060A"/>
<circle cx="1679.8" cy="7680" r="3" fill="#00060A"/>
<circle cx="1919.8" cy="7680" r="3" fill="#00060A"/>
<circle cx="-0.199219" cy="7920" r="3" fill="#00060A"/>
<circle cx="239.801" cy="7920" r="3" fill="#00060A"/>
<circle cx="479.801" cy="7920" r="3" fill="#00060A"/>
<circle cx="719.801" cy="7920" r="3" fill="#00060A"/>
<circle cx="959.801" cy="7920" r="3" fill="#00060A"/>
<circle cx="1199.8" cy="7920" r="3" fill="#00060A"/>
<circle cx="1439.8" cy="7920" r="3" fill="#00060A"/>
<circle cx="1679.8" cy="7920" r="3" fill="#00060A"/>
<circle cx="1919.8" cy="7920" r="3" fill="#00060A"/>
</g>
</svg>
